<?xml version="1.0" standalone="no"?>
<!DOCTYPE svg PUBLIC "-//W3C//DTD SVG 20010904//EN"
 "http://www.w3.org/TR/2001/REC-SVG-20010904/DTD/svg10.dtd">
<svg version="1.0" xmlns="http://www.w3.org/2000/svg"
 width="256.000000pt" height="256.000000pt" viewBox="0 0 256.000000 256.000000"
 preserveAspectRatio="xMidYMid meet">
<metadata>
Created by potrace 1.14, written by Peter Selinger 2001-2017
</metadata>
<g transform="translate(0.000000,256.000000) scale(0.100000,-0.100000)"
fill="#000000" stroke="none">
<path d="M1120 2360 l0 -40 -120 0 -120 0 0 -40 0 -40 -80 0 -80 0 0 -40 0
-40 -40 0 -40 0 0 -80 0 -80 -40 0 -40 0 0 -80 0 -80 -40 0 -40 0 0 -40 0 -40
40 0 40 0 0 -80 0 -80 40 0 40 0 0 -160 0 -160 -40 0 -40 0 0 -160 0 -160 40
0 40 0 0 -80 0 -80 80 0 80 0 0 -120 0 -120 40 0 40 0 0 -120 0 -120 40 0 40
0 0 -120 0 -120 -120 0 -120 0 0 -40 0 -40 120 0 120 0 0 40 0 40 40 0 40 0 0
120 0 120 40 0 40 0 0 -160 0 -160 200 0 200 0 0 40 0 40 40 0 40 0 0 160 0
160 80 0 80 0 0 -40 0 -40 -40 0 -40 0 0 -120 0 -120 40 0 40 0 0 -40 0 -40
120 0 120 0 0 40 0 40 -80 0 -80 0 0 40 0 40 -40 0 -40 0 0 80 0 80 40 0 40 0
0 200 0 200 40 0 40 0 0 40 0 40 80 0 80 0 0 80 0 80 40 0 40 0 0 160 0 160
-80 0 -80 0 0 40 0 40 40 0 40 0 0 320 0 320 -40 0 -40 0 0 40 0 40 -40 0 -40
0 0 80 0 80 -80 0 -80 0 0 40 0 40 -40 0 -40 0 0 40 0 40 -280 0 -280 0 0 -40z
m0 -400 l0 -40 -40 0 -40 0 0 -40 0 -40 -40 0 -40 0 0 40 0 40 40 0 40 0 0 40
0 40 40 0 40 0 0 -40z m480 -80 l0 -40 40 0 40 0 0 -80 0 -80 40 0 40 0 0 -40
0 -40 40 0 40 0 0 -120 0 -120 -40 0 -40 0 0 40 0 40 -200 0 -200 0 0 -80 0
-80 80 0 80 0 0 -40 0 -40 120 0 120 0 0 40 0 40 40 0 40 0 0 -160 0 -160 -40
0 -40 0 0 -160 0 -160 -40 0 -40 0 0 -40 0 -40 -40 0 -40 0 0 -80 0 -80 -160
0 -160 0 0 -40 0 -40 -40 0 -40 0 0 40 0 40 -80 0 -80 0 0 -40 0 -40 -40 0
-40 0 0 40 0 40 40 0 40 0 0 40 0 40 -40 0 -40 0 0 40 0 40 -40 0 -40 0 0 120
0 120 -40 0 -40 0 0 80 0 80 -40 0 -40 0 0 120 0 120 160 0 160 0 0 40 0 40
80 0 80 0 0 80 0 80 -200 0 -200 0 0 80 0 80 40 0 40 0 0 40 0 40 80 0 80 0 0
40 0 40 40 0 40 0 0 40 0 40 80 0 80 0 0 40 0 40 160 0 160 0 0 -40z"/>
<path d="M1360 1040 l0 -80 -120 0 -120 0 0 -40 0 -40 40 0 40 0 0 -40 0 -40
80 0 80 0 0 40 0 40 40 0 40 0 0 120 0 120 -40 0 -40 0 0 -80z"/>
<path d="M1040 680 l0 -40 160 0 160 0 0 -40 0 -40 40 0 40 0 0 40 0 40 40 0
40 0 0 40 0 40 -240 0 -240 0 0 -40z"/>
</g>
</svg>
